# xmcd
#
# Track frame offsets:
# 150
# 19841
# 30008
# 37821
# 49528
# 62831
# 70487
# 77953
# 85393
# 93059
# 100102
# 106835
# 114161
# 122576
# 139022
# 146447
# 152366
# 159111
# 174526
# 183439
# 190718
# 205875
# 221980
# 239916
# 251255
#
# Disc length: 3444 seconds
#
#
# Revision: 4
# Processed by: cddbd v1.5.2PL0 Copyright (c) Steve Scherf et al.
# Submitted via: FreeRIP 2.942 
#
DISCID=410d7219
DTITLE=Chiclete com Banana - "Ao Vivo em Salvador"
DYEAR=2001
DGENRE=Pop-Folk
TTITLE0=Bomba
TTITLE1=Daniela
TTITLE2=O Beijo
TTITLE3=Nega
TTITLE4=Cabelo raspadinho
TTITLE5=Pistoleira
TTITLE6=Se tem merengue aí
TTITLE7=Novo som de Salvador
TTITLE8=Festa do passa a mão
TTITLE9=Barco novo
TTITLE10=Nana ê
TTITLE11=Todo mundo tá maluco
TTITLE12=Libera geral
TTITLE13=Menina me dá o seu amor
TTITLE14=Mel
TTITLE15=Swingue do Araketu
TTITLE16=Banana com cevada
TTITLE17=Cara caramba sou camaleão
TTITLE18=Festa
TTITLE19=Pererê
TTITLE20=Lelelê
TTITLE21=Preciso segurar essa onda
TTITLE22=Não chore mais
TTITLE23=Meu bem quero te amar
TTITLE24=Toma lá da cá
EXTD=
EXTT0=
EXTT1=
EXTT2=
EXTT3=
EXTT4=
EXTT5=
EXTT6=
EXTT7=
EXTT8=
EXTT9=
EXTT10=
EXTT11=
EXTT12=
EXTT13=
EXTT14=
EXTT15=
EXTT16=
EXTT17=
EXTT18=
EXTT19=
EXTT20=
EXTT21=
EXTT22=
EXTT23=
EXTT24=
PLAYORDER=
